<svg width="594" height="475" viewBox="0 0 594 475" fill="none" xmlns="http://www.w3.org/2000/svg">
<path d="M297.755 0C148.007 7.7904 112.733 124.43 113.815 181.776L469.793 176.366C475.924 123.709 450.101 14.7152 297.755 0Z" fill="#E1B96A"/>
<path d="M412.447 153.644C430.29 149.316 428.871 82.232 420.021 48.69C467.602 92.8356 472.416 156.529 468.876 182.858C464.982 181.055 438.786 171.822 412.447 153.644Z" fill="#BB9156"/>
<path d="M158.177 160.134C198.211 115.411 317.014 57.7786 424.349 159.054C200.375 166.628 170.079 160.134 158.177 160.134Z" fill="#C92139"/>
<path d="M4.53404 308.37C-30.9556 416.57 150.604 458.768 245.82 466.342C359.069 469.949 586.649 447.732 590.977 330.01C566.091 182.858 394.053 138.496 302.083 135.25C210.113 132.004 48.896 173.12 4.53404 308.37Z" fill="#BD9055"/>
<path d="M9.88332 332.174L16.3753 380.864C11.1817 377.402 4.83399 366.437 3.39132 360.306C1.58799 347.322 -1.36948 320.056 1.22732 314.862C4.47332 308.37 5.55532 305.124 5.55532 301.878C5.55532 298.632 6.63732 292.14 9.88332 285.648C13.1293 279.156 16.3753 279.156 16.3753 274.828C16.3753 271.366 19.2607 263.287 20.7033 259.68L25.0313 254.27L35.8513 247.778L41.2613 244.532L45.5893 238.04L54.2453 228.302L58.5733 225.056L61.8193 218.564L84.5413 202.334L99.6893 193.678L102.935 191.514L108.345 183.94L138.641 167.71L154.871 157.972L163.527 160.136L173.265 153.644L188.413 151.48H198.151L204.643 146.07L224.119 137.414H247.923L263.071 135.25L270.645 137.414L280.383 139.578H296.613V135.25L346.385 139.578L361.533 141.742L370.189 146.07H388.583L406.977 151.48L421.043 153.644L482.717 178.53L485.963 183.94L504.357 191.514L534.653 221.81V230.466H540.063L566.031 261.844L576.851 275.91L581.179 289.976L589.835 311.616V319.19L593.081 334.338L589.835 352.732L584.425 345.158V336.502V326.764L581.179 319.19L573.605 311.616V301.878V295.386L566.031 285.648L558.457 280.238V271.582L555.211 261.844L548.719 255.352L540.063 251.024L534.653 242.368L524.915 238.04L520.587 232.63L515.177 225.056H508.685V216.4L500.029 210.99H493.537L485.963 203.416L475.143 191.514L466.487 187.186H457.831L452.421 178.53H441.601L418.879 169.874L402.649 163.382H393.993C390.026 162.3 381.009 160.136 376.681 160.136H361.533L358.287 163.382L339.893 153.644H333.401H321.499H311.761H304.187H291.203H278.219H263.071H250.087H242.513L224.119 163.382H208.971C205.725 165.546 198.584 169.874 195.987 169.874H181.921C179.036 170.956 172.4 174.202 168.937 178.53C165.475 182.858 159.56 180.333 157.035 178.53H148.379V187.186L138.641 191.514L126.739 196.924L105.099 210.99C100.05 214.957 89.3021 223.325 86.7053 225.056C84.1085 226.787 76.9673 230.827 73.7213 232.63L61.8193 242.368L56.4093 251.024H48.8353L38.0153 271.582C36.9333 275.189 33.9037 283.051 30.4413 285.648C26.1133 288.894 20.7033 298.632 20.7033 301.878C20.7033 304.475 16.3753 319.551 14.2113 326.764L9.88332 332.174Z" fill="#E1B96A"/>
<path d="M207.949 457.686L204.703 436.046C220.284 412.675 338.871 414.767 396.217 418.734L383.233 451.194L374.577 436.046L361.593 465.26L357.265 447.948L233.917 457.686L222.015 474.998L217.687 447.948L207.949 457.686Z" fill="black"/>
<path d="M161.423 355.978L159.26 320.272C157.457 321.354 149.955 317.242 134.374 292.14C114.898 260.762 167.916 198.007 216.606 186.105L216.985 186.013C265.402 174.177 285.799 169.191 341.036 179.612C398.382 190.432 469.794 286.73 452.482 338.666C484.942 362.47 427.596 412.242 398.382 412.242C384.316 434.964 319.396 473.916 290.182 473.916C260.968 473.916 202.54 444.702 181.982 412.242C122.472 400.34 120.308 360.306 126.8 333.256C139.784 320.272 157.095 342.633 161.423 355.978Z" fill="#EEC3A1"/>
<path d="M451.523 348.196C457.891 352.382 452.224 360.273 449.813 362.158C448.065 363.524 443.832 364.706 441.39 365.252C443.277 382.738 432.36 389.659 426.665 390.934L414.383 391.534C413.046 393.55 410.184 397.342 409.43 396.377C408.676 395.413 411.337 389.707 412.762 386.975C414.187 384.242 422.085 383.832 422.085 383.832C422.567 379.894 424.387 370.379 427.807 363.822C432.082 355.625 443.336 342.814 451.523 348.196Z" fill="#CD936E" fill-opacity="0.8"/>
<path d="M126.799 378.7L113.815 404.668V348.404C104.798 352.732 84.3844 361.604 74.8628 362.47C88.9288 342.994 111.651 321.354 110.569 300.796C101.913 304.258 88.9288 302.239 83.5188 300.796C92.5355 295.747 113.815 278.507 126.799 249.942C138.905 223.308 191.227 195.788 217.687 185.022C219.605 184.242 216.005 186.738 217.687 186.104C225.111 184.01 234.303 181.93 244.737 180.191C251.16 179.121 258.054 178.18 265.295 177.446C313.151 172.595 376.189 176.757 418.939 212.072C462.041 254.097 465.437 277.878 467.602 293.035L467.629 293.222C477.15 305.34 482.416 318.469 483.859 323.518L467.629 310.534V338.666L458.973 330.01C451.399 340.83 433.87 363.336 424.349 366.798C425.214 349.486 429.037 327.125 430.841 318.108L418.939 338.666C422.185 327.125 429.975 304.042 422.185 282.402C417.857 309.236 413.889 318.108 408.119 318.108L396.217 266.172L359.429 193.678V200.17L364.634 291.058L330.215 186.104C328.772 220.728 320.477 286.73 320.477 282.402C320.477 278.074 280.443 214.235 265.295 177.446C258.054 178.18 251.16 179.121 244.737 180.191L238.245 276.992L217.687 186.104C216.005 186.738 219.605 184.242 217.687 185.022C207.227 195.856 190.42 235.876 193.883 313.78C183.496 286.081 170.079 288.533 168.997 291.058L172.243 330.01L160.341 318.108V354.896C157.816 347.683 148.872 332.607 133.291 330.01C122.904 333.472 124.635 363.913 126.799 378.7Z" fill="#CD8F68"/>
<path d="M128.963 377.618L113.815 404.668V348.404C104.798 352.732 84.3844 361.604 74.8628 362.47C88.9288 342.994 111.651 321.354 110.569 300.796C101.913 304.258 88.9288 302.239 83.5188 300.796C92.5355 295.747 113.815 278.507 126.799 249.942C138.905 223.308 185.817 198.994 212.277 188.227C214.195 187.447 216.005 186.738 217.687 186.104C225.111 184.01 234.303 181.93 244.737 180.191C251.16 179.121 258.054 178.18 265.295 177.446C313.151 172.595 376.189 176.757 418.939 212.072C462.041 254.097 465.437 277.878 467.602 293.035L467.629 293.222C477.15 305.34 482.416 318.469 483.859 323.518L467.629 310.534V338.666L458.973 330.01C451.399 340.83 433.87 363.336 424.349 366.798C425.214 349.486 429.037 327.125 430.841 318.108L418.939 338.666C422.185 327.125 426.729 298.632 418.939 276.992C414.611 303.826 401.987 310.534 396.217 310.534V265.09L361.593 186.104L346.445 182.858L361.593 293.222L315.067 194.76C313.624 229.384 310.739 297.55 310.739 293.222C310.739 288.894 280.443 214.235 265.295 177.446C258.054 178.18 251.16 179.121 244.737 180.191L217.687 280.238V186.104C216.005 186.738 214.195 187.447 212.277 188.227C201.817 199.061 181.764 240.204 185.227 318.108C174.84 290.409 170.079 288.533 168.997 291.058L172.243 330.01L160.341 318.108V354.896C157.816 347.683 148.872 332.607 133.291 330.01C122.904 333.472 122.471 358.142 128.963 377.618Z" fill="black"/>
<path d="M137.059 345.233C127.321 346.315 134.895 357.135 137.059 359.299C138.628 360.868 142.685 362.555 145.043 363.395C141.043 380.521 151.038 388.719 156.535 390.677L172.765 393.923C173.847 396.087 176.227 400.199 177.093 399.333C177.959 398.467 176.011 392.48 174.929 389.595L161.945 384.185C161.945 380.218 161.296 370.552 158.699 363.627C155.453 354.971 146.797 344.151 137.059 345.233Z" fill="#CD936E" fill-opacity="0.8"/>
<path d="M305.6 376.623C298.675 374.026 296.944 363.278 296.944 358.229C296.583 357.868 295.213 358.445 292.616 363.639C291.534 372.295 293.698 372.295 299.108 378.787C304.518 385.279 314.256 379.869 305.6 376.623Z" fill="#CC8D66"/>
<path d="M397.299 347.322C392.198 354.278 375.319 367.076 348.609 362.625" stroke="#8D5E41" stroke-opacity="0.38" stroke-width="0.4328"/>
<path d="M386.17 348.713C388.488 348.945 393.821 351.217 396.603 358.451" stroke="#8D5E41" stroke-opacity="0.38" stroke-width="0.4328"/>
<path d="M377.823 352.887C380.141 353.118 385.474 355.391 388.256 362.625" stroke="#8D5E41" stroke-opacity="0.38" stroke-width="0.4328"/>
<path d="M369.476 357.06C371.795 357.292 377.127 359.564 379.91 366.798" stroke="#8D5E41" stroke-opacity="0.38" stroke-width="0.4328"/>
<path d="M358.347 359.842C360.665 360.074 365.998 362.346 368.78 369.58" stroke="#8D5E41" stroke-opacity="0.38" stroke-width="0.4328"/>
</svg>
